HIERARCHY
ROOT joint_Root
{
	OFFSET 0.0 0.0 0.0
	CHANNELS 6 Xposition Yposition Zposition Zrotation Xrotation Yrotation 
	JOINT Hips
	{
		OFFSET -0.726466 93.3139 -2.00062
		CHANNELS 6 Xposition Yposition Zposition Zrotation Xrotation Yrotation 
		JOINT Spine
		{
			OFFSET 15.7357 0.0 0.0
			CHANNELS 6 Xposition Yposition Zposition Zrotation Xrotation Yrotation 
			JOINT Chest
			{
				OFFSET 8.98455 -0.406207 0.0
				CHANNELS 6 Xposition Yposition Zposition Zrotation Xrotation Yrotation 
				JOINT Neck
				{
					OFFSET 16.3773 0.0 0.0
					CHANNELS 6 Xposition Yposition Zposition Zrotation Xrotation Yrotation 
					JOINT Head
					{
						OFFSET 6.45672 0.0 0.0
						CHANNELS 6 Xposition Yposition Zposition Zrotation Xrotation Yrotation 
						End Site
						{
							OFFSET 0.0 0.0 0.0
						}
					}
				}
				JOINT Shoulder_L
				{
					OFFSET 12.9942 -0.242716 4.98039
					CHANNELS 6 Xposition Yposition Zposition Zrotation Xrotation Yrotation 
					JOINT UpperArm_L
					{
						OFFSET 5.34809 0.0 0.0
						CHANNELS 6 Xposition Yposition Zposition Zrotation Xrotation Yrotation 
						JOINT LowerArm_L
						{
							OFFSET 24.3286 1.87007e-05 0.0
							CHANNELS 6 Xposition Yposition Zposition Zrotation Xrotation Yrotation 
							JOINT Hand_L
							{
								OFFSET 22.2916 0.0 0.0
								CHANNELS 6 Xposition Yposition Zposition Zrotation Xrotation Yrotation 
								End Site
								{
									OFFSET 0.0 0.0 0.0
								}
							}
						}
					}
				}
				JOINT Shoulder_R
				{
					OFFSET 12.9945 -0.242716 -4.98039
					CHANNELS 6 Xposition Yposition Zposition Zrotation Xrotation Yrotation 
					JOINT UpperArm_R
					{
						OFFSET -5.34813 0.0 0.0
						CHANNELS 6 Xposition Yposition Zposition Zrotation Xrotation Yrotation 
						JOINT LowerArm_R
						{
							OFFSET -24.3289 0.000322201 0.0
							CHANNELS 6 Xposition Yposition Zposition Zrotation Xrotation Yrotation 
							JOINT Hand_R
							{
								OFFSET -22.2915 -0.000108084 0.0
								CHANNELS 6 Xposition Yposition Zposition Zrotation Xrotation Yrotation 
								End Site
								{
									OFFSET 0.0 0.0 0.0
								}
							}
						}
					}
				}
			}
		}
		JOINT UpperLeg_L
		{
			OFFSET -2.19248 -6.46944 0.0
			CHANNELS 6 Xposition Yposition Zposition Zrotation Xrotation Yrotation 
			JOINT LowerLeg_L
			{
				OFFSET 39.0811 0.0 -1.23785e-05
				CHANNELS 6 Xposition Yposition Zposition Zrotation Xrotation Yrotation 
				JOINT Foot_L
				{
					OFFSET 40.9854 0.0 -1.26872e-05
					CHANNELS 6 Xposition Yposition Zposition Zrotation Xrotation Yrotation 
					JOINT Toes_L
					{
						OFFSET 11.7543 0.0 0.0
						CHANNELS 6 Xposition Yposition Zposition Zrotation Xrotation Yrotation 
						End Site
						{
							OFFSET 0.0 0.0 0.0
						}
					}
				}
			}
		}
		JOINT UpperLeg_R
		{
			OFFSET -2.19251 6.46944 0.0
			CHANNELS 6 Xposition Yposition Zposition Zrotation Xrotation Yrotation 
			JOINT LowerLeg_R
			{
				OFFSET -39.0811 -0.00228153 -0.0401928
				CHANNELS 6 Xposition Yposition Zposition Zrotation Xrotation Yrotation 
				JOINT Foot_R
				{
					OFFSET -40.9854 0.0 0.0
					CHANNELS 6 Xposition Yposition Zposition Zrotation Xrotation Yrotation 
					JOINT Toes_R
					{
						OFFSET -11.7543 0.0 0.0
						CHANNELS 6 Xposition Yposition Zposition Zrotation Xrotation Yrotation 
						End Site
						{
							OFFSET 0.0 0.0 0.0
						}
					}
				}
			}
		}
	}
}
MOTION
Frames:	6
Frame Time:	0.0333333
0.000000 0.000000 0.000000 0.000000 0.000000 -0.000000 -1.613550 91.896500 -1.847210 87.895300 -2.772190 4.559830 15.735700 0.000005 -0.000001 72.446900 85.030800 -69.557100 8.984550 -0.406207 -0.000000 1.798340 -3.145920 5.824910 16.377300 -0.000001 -0.000001 5.904770 0.185682 -3.942550 6.456720 -0.000001 -0.000000 3.714540 1.161440 -1.237330 12.994200 -0.242716 4.980390 -84.791900 -10.555800 -63.546700 5.348090 -0.000007 -0.000001 -65.890000 -53.913100 -97.114400 24.328600 0.000019 0.000005 -2.977770 -2.436440 -50.743800 22.291600 -0.000001 0.000005 15.454900 5.643840 -14.453500 12.994500 -0.242716 -4.980390 90.843000 -2.413050 -70.737300 -5.348130 -0.000001 -0.000004 -47.875900 77.234100 -1.567840 -24.328900 0.000322 -0.000009 20.583600 1.824400 -85.155400 -22.291500 -0.000108 -0.000004 37.988500 5.660370 -26.139400 -2.192480 -6.469440 -0.000000 -169.853000 -17.173600 -3.419170 39.081100 -0.000007 -0.000012 -0.154791 0.341474 24.385100 40.985400 -0.000006 -0.000013 -5.937290 -1.719330 -64.447800 11.754300 -0.000000 0.000003 -0.000057 -0.000634 -16.602100 -2.192510 6.469440 -0.000001 176.223000 21.548800 176.942000 -39.081100 -0.002282 -0.040193 0.041995 -0.087503 23.847800 -40.985400 0.000008 0.000006 1.247370 2.361000 -64.843500 -11.754300 -0.000006 -0.000006 -0.005865 -0.069606 -19.405800
0.000000 0.000000 0.000000 0.000000 0.000000 -0.000000 -1.611030 91.882600 -1.855610 87.883100 -2.700590 4.611690 15.735700 0.000005 -0.000001 72.537700 85.011800 -69.645400 8.984550 -0.406207 -0.000000 1.839140 -3.141320 5.830980 16.377300 -0.000001 -0.000001 6.008940 0.155003 -3.951230 6.456720 -0.000001 -0.000000 3.719340 1.176410 -1.296140 12.994200 -0.242716 4.980390 -84.800400 -10.519300 -63.505900 5.348090 -0.000007 -0.000001 -66.069300 -53.930200 -97.241700 24.328600 0.000019 0.000005 -3.011430 -2.456770 -50.826700 22.291600 -0.000001 0.000005 15.480200 5.644320 -14.495300 12.994500 -0.242716 -4.980390 90.848500 -2.424450 -70.703500 -5.348130 -0.000001 -0.000004 -47.778500 77.194400 -1.692250 -24.328900 0.000322 -0.000009 20.669100 1.824720 -85.176300 -22.291500 -0.000108 -0.000004 37.951100 5.661310 -26.030100 -2.192480 -6.469440 -0.000000 -169.837000 -17.135800 -3.449220 39.081100 -0.000007 -0.000012 -0.151336 0.332065 24.500900 40.985400 -0.000006 -0.000013 -5.927640 -1.693050 -64.488000 11.754300 -0.000000 0.000003 -0.000054 -0.000608 -16.601100 -2.192510 6.469440 -0.000001 176.227000 21.477700 176.973000 -39.081100 -0.002282 -0.040193 0.042609 -0.088667 23.901400 -40.985400 0.000008 0.000006 1.226280 2.256540 -64.899500 -11.754300 -0.000006 -0.000006 -0.005720 -0.068266 -19.351200
0.000000 0.000000 0.000000 0.000000 0.000000 -0.000000 -1.615650 91.887200 -1.865040 87.887500 -2.606890 4.644640 15.735700 0.000005 -0.000001 72.476500 85.004700 -69.591500 8.984550 -0.406207 -0.000000 1.849630 -3.155110 5.816780 16.377300 -0.000001 -0.000001 6.054030 0.174166 -3.966590 6.456720 -0.000001 -0.000000 3.722730 1.224500 -1.264810 12.994200 -0.242716 4.980390 -84.791700 -10.516000 -63.460300 5.348090 -0.000007 -0.000001 -66.181300 -53.944000 -97.276500 24.328600 0.000019 0.000005 -3.033440 -2.466770 -50.917400 22.291600 -0.000001 0.000005 15.380500 5.643320 -14.408000 12.994500 -0.242716 -4.980390 90.817300 -2.332330 -70.682500 -5.348130 -0.000001 -0.000004 -47.858800 77.136500 -1.511490 -24.328900 0.000322 -0.000009 20.666600 1.811350 -85.210900 -22.291500 -0.000108 -0.000004 37.972100 5.660510 -26.123700 -2.192480 -6.469440 -0.000000 -169.840000 -17.079900 -3.423670 39.081100 -0.000007 -0.000012 -0.153016 0.336213 24.471300 40.985400 -0.000006 -0.000013 -5.915740 -1.659330 -64.462500 11.754300 -0.000000 0.000003 -0.000058 -0.000647 -16.602600 -2.192510 6.469440 -0.000001 176.216000 21.503100 177.009000 -39.081100 -0.002282 -0.040193 0.042693 -0.088857 23.901200 -40.985400 0.000008 0.000006 1.278060 2.162740 -64.887500 -11.754300 -0.000006 -0.000006 -0.005675 -0.067857 -19.334500
0.000000 0.000000 0.000000 0.000000 0.000000 -0.000000 -1.603220 91.877200 -1.873010 87.890700 -2.572560 4.631400 15.735700 0.000005 -0.000001 72.653000 85.010900 -69.761400 8.984550 -0.406207 -0.000000 1.846420 -3.122520 5.829380 16.377300 -0.000001 -0.000001 6.052900 0.178410 -3.961400 6.456720 -0.000001 -0.000000 3.700300 1.231110 -1.316830 12.994200 -0.242716 4.980390 -84.793100 -10.498400 -63.428900 5.348090 -0.000007 -0.000001 -66.194900 -53.972300 -97.190000 24.328600 0.000019 0.000005 -3.080340 -2.494910 -51.030600 22.291600 -0.000001 0.000005 15.373400 5.643720 -14.442800 12.994500 -0.242716 -4.980390 90.814100 -2.320870 -70.664900 -5.348130 -0.000001 -0.000004 -48.058200 77.044800 -1.317350 -24.328900 0.000322 -0.000009 20.637500 1.816140 -85.190900 -22.291500 -0.000108 -0.000004 37.816300 5.659920 -26.192000 -2.192480 -6.469440 -0.000000 -169.866000 -17.059100 -3.503900 39.081100 -0.000007 -0.000012 -0.151299 0.331130 24.556600 40.985400 -0.000006 -0.000013 -5.901760 -1.652320 -64.490400 11.754300 -0.000000 0.000003 -0.000060 -0.000665 -16.603300 -2.192510 6.469440 -0.000001 176.212000 21.537100 176.982000 -39.081100 -0.002282 -0.040193 0.042843 -0.089078 23.929400 -40.985400 0.000008 0.000006 1.197190 2.160080 -64.921000 -11.754300 -0.000006 -0.000006 -0.005833 -0.069308 -19.393700
0.000000 0.000000 0.000000 0.000000 0.000000 -0.000000 -1.582380 91.886900 -1.881230 87.912000 -2.555890 4.635140 15.735700 0.000005 -0.000001 72.843200 85.013900 -69.957100 8.984550 -0.406207 -0.000000 1.849490 -3.088790 5.817940 16.377300 -0.000001 -0.000001 6.000700 0.182330 -3.966700 6.456720 -0.000001 -0.000000 3.701030 1.221210 -1.289310 12.994200 -0.242716 4.980390 -84.808400 -10.453600 -63.399700 5.348090 -0.000007 -0.000001 -66.086500 -54.000000 -97.098800 24.328600 0.000019 0.000005 -3.053850 -2.469590 -51.073600 22.291600 -0.000001 0.000005 15.314000 5.642850 -14.368400 12.994500 -0.242716 -4.980390 90.807300 -2.301160 -70.661400 -5.348130 -0.000001 -0.000004 -48.238900 77.021500 -1.113320 -24.328900 0.000322 -0.000009 20.646600 1.813170 -85.201000 -22.291500 -0.000108 -0.000004 37.873900 5.659790 -26.205900 -2.192480 -6.469440 -0.000000 -169.904000 -17.050800 -3.476240 39.081100 -0.000007 -0.000012 -0.151498 0.332578 24.490700 40.985400 -0.000006 -0.000013 -5.881860 -1.645980 -64.456800 11.754300 -0.000000 0.000003 -0.000054 -0.000610 -16.601200 -2.192510 6.469440 -0.000001 176.187000 21.467400 176.997000 -39.081100 -0.002282 -0.040193 0.042783 -0.089109 23.890000 -40.985400 0.000008 0.000006 1.203130 2.088900 -64.885000 -11.754300 -0.000006 -0.000006 -0.005878 -0.069722 -19.410600
0.000000 0.000000 0.000000 0.000000 0.000000 -0.000000 -1.570320 91.887400 -1.900300 87.934200 -2.511980 4.613370 15.735700 0.000005 -0.000001 72.928900 85.019900 -70.049600 8.984550 -0.406207 -0.000000 1.841620 -3.070840 5.803810 16.377300 -0.000001 -0.000001 5.975810 0.181753 -3.950640 6.456720 -0.000001 -0.000000 3.690910 1.188750 -1.293230 12.994200 -0.242716 4.980390 -84.823000 -10.426300 -63.405000 5.348090 -0.000007 -0.000001 -66.033000 -53.990300 -96.974700 24.328600 0.000019 0.000005 -3.127280 -2.517180 -51.206200 22.291600 -0.000001 0.000005 15.320300 5.642830 -14.365400 12.994500 -0.242716 -4.980390 90.798000 -2.273640 -70.654800 -5.348130 -0.000001 -0.000004 -48.271900 77.007900 -1.064000 -24.328900 0.000322 -0.000009 20.723600 1.823330 -85.193800 -22.291500 -0.000108 -0.000004 37.884900 5.660160 -26.164200 -2.192480 -6.469440 -0.000000 -169.964000 -16.974600 -3.532910 39.081100 -0.000007 -0.000012 -0.149923 0.329053 24.495100 40.985400 -0.000006 -0.000013 -5.877420 -1.706120 -64.447200 11.754300 -0.000000 0.000003 -0.000062 -0.000684 -16.604000 -2.192510 6.469440 -0.000001 176.169000 21.477800 176.974000 -39.081100 -0.002282 -0.040193 0.042677 -0.088942 23.872900 -40.985400 0.000008 0.000006 1.166810 2.050800 -64.890100 -11.754300 -0.000006 -0.000006 -0.005978 -0.070633 -19.447700
